<svg xmlns="http://www.w3.org/2000/svg" viewBox="0 0 24.91 5.09"><defs><style>.cls-1{fill:#fff;}.cls-2{fill:#f5965a;}.cls-3{fill:none;stroke:#f5965a;stroke-miterlimit:10;stroke-width:0.12px;}</style></defs><title>Fichier 4</title><g id="Calque_2" data-name="Calque 2"><g id="Calque_1-2" data-name="Calque 1"><path class="cls-1" d="M1.08.88H0V.37H2.76V.88H1.68V3.62h-.6Z"/><path class="cls-1" d="M6.87,1.14,6,3.62H5.4L4.76,1.91,4.11,3.62H3.55L2.64,1.14h.55L3.84,3l.69-1.83H5L5.68,3l.67-1.84Z"/><path class="cls-1" d="M7.3.63A.31.31,0,0,1,7.19.38.31.31,0,0,1,7.3.13.4.4,0,0,1,7.56,0a.38.38,0,0,1,.27.1.3.3,0,0,1,.1.24c0,.1-.18,0-.25,0s0,.34-.12.34A.35.35,0,0,1,7.3.63Zm0,.51h.58V3.62H7.27Z"/><path class="cls-1" d="M11.07,1.14v2.1A1.17,1.17,0,0,1,9.73,4.55a2.54,2.54,0,0,1-.68-.09,1.41,1.41,0,0,1-.52-.26l.26-.44A1.22,1.22,0,0,0,9.2,4a1.69,1.69,0,0,0,.5.08.86.86,0,0,0,.6-.19.74.74,0,0,0,.19-.57V3.17a.9.9,0,0,1-.36.25,1.22,1.22,0,0,1-.47.08A1.34,1.34,0,0,1,9,3.35a1.14,1.14,0,0,1-.45-.42,1.18,1.18,0,0,1-.16-.63,1.17,1.17,0,0,1,.16-.62A1.14,1.14,0,0,1,9,1.26a1.34,1.34,0,0,1,.64-.15,1.3,1.3,0,0,1,.49.09,1,1,0,0,1,.37.27V1.14Zm-.78,1.68a.7.7,0,0,0,.21-.52.66.66,0,0,0-.21-.5.77.77,0,0,0-.54-.2.77.77,0,0,0-.55.2A.66.66,0,0,0,9,2.3a.7.7,0,0,0,.21.52A.77.77,0,0,0,9.75,3,.76.76,0,0,0,10.29,2.82Z"/><path class="cls-1" d="M12.29.24a.39.39,0,0,1,.11.28.88.88,0,0,1,0,.16l-.09.24-.24.66h-.37l.18-.72A.29.29,0,0,1,11.7.73a.37.37,0,0,1-.06-.21.39.39,0,0,1,.11-.28.41.41,0,0,1,.54,0Z"/><path class="cls-1" d="M15.09.51a1,1,0,0,1,.48.4,1.09,1.09,0,0,1,.17.61,1.15,1.15,0,0,1-.17.62,1.06,1.06,0,0,1-.48.4,1.84,1.84,0,0,1-.74.14h-.73v.94H13V.37h1.33A1.69,1.69,0,0,1,15.09.51ZM14.93,2a.6.6,0,0,0,.2-.48.63.63,0,0,0-.2-.48,1,1,0,0,0-.6-.16h-.71V2.17h.71A1,1,0,0,0,14.93,2Z"/><path class="cls-1" d="M17.7,1.11v.55h-.14a.69.69,0,0,0-.53.2.81.81,0,0,0-.19.56V3.62h-.58V1.14h.55V1.5A1,1,0,0,1,17.7,1.11Z"/><path class="cls-1" d="M23.66.17V3.62H23.1V3.3a.92.92,0,0,1-.35.26,1.19,1.19,0,0,1-.47.09,1.24,1.24,0,0,1-.64-.16A1.08,1.08,0,0,1,21.19,3,1.29,1.29,0,0,1,21,2.38a1.33,1.33,0,0,1,.16-.67,1.12,1.12,0,0,1,.45-.44,1.34,1.34,0,0,1,1.09-.08,1,1,0,0,1,.35.25V.17Zm-.93,2.89A.7.7,0,0,0,23,2.78a.74.74,0,0,0,.1-.4A.78.78,0,0,0,23,2a.62.62,0,0,0-.26-.27.7.7,0,0,0-.38-.1.66.66,0,0,0-.37.1.64.64,0,0,0-.27.27.89.89,0,0,0-.1.41.85.85,0,0,0,.1.4.73.73,0,0,0,.27.28.75.75,0,0,0,.37.09A.79.79,0,0,0,22.73,3.06Z"/><path class="cls-2" d="M24.26,3.54a.39.39,0,0,1-.11-.28A.41.41,0,0,1,24.26,3a.41.41,0,0,1,.54,0,.37.37,0,0,1,.11.28.36.36,0,0,1-.11.28.37.37,0,0,1-.27.11A.4.4,0,0,1,24.26,3.54Z"/><path class="cls-1" d="M18.41,3.36,18.78,3l0,0a.76.76,0,0,1-.2-.56.78.78,0,0,1,.2-.57.77.77,0,0,1,1.06,0l.05.06.38-.39A1.21,1.21,0,0,0,20,1.27a1.52,1.52,0,0,0-1.36,0,1.2,1.2,0,0,0-.47.45,1.3,1.3,0,0,0-.17.66,1.29,1.29,0,0,0,.17.65A1.12,1.12,0,0,0,18.41,3.36Z"/><path class="cls-2" d="M20.21,1.7l-.37.39,0,0a.75.75,0,0,1,.21.56.72.72,0,0,1-.2.56.69.69,0,0,1-.52.22.72.72,0,0,1-.53-.21s0,0,0,0l-.38.39a1.21,1.21,0,0,0,.28.21,1.51,1.51,0,0,0,.68.15A1.37,1.37,0,0,0,20,3.78a1.16,1.16,0,0,0,.47-.46,1.28,1.28,0,0,0,.16-.65A1.33,1.33,0,0,0,20.49,2,1,1,0,0,0,20.21,1.7Z"/><path class="cls-3" d="M1,4.29c.45-.06,7.05-.91,7.24-.1.34,1.5,4.73.75,2.84-.41"/><path class="cls-2" d="M7.32.68A.32.32,0,0,1,7.19.42.4.4,0,0,1,7.27.13.38.38,0,0,1,7.53,0a.34.34,0,0,1,.28.09.32.32,0,0,1,.13.27c0,.11-.2,0-.27.09s0,.31-.08.32A.34.34,0,0,1,7.32.68Z"/></g></g></svg>